# xmcd
#
# Track frame offsets:
#	150
#	11363
#	23500
#	33938
#	47325
#	61238
#	75313
#	88638
#	102225
#	114950
#	129025
#	138188
#	150725
#	161688
#
# Disc length: 2324
#
# Revision: 1
# Processed by: cddbd v1.5.1PL0 Copyright (c) Steve Scherf et al.
# Submitted via: VisiTrax 2.9.3.171 - For more info visit www.synapsa.com
# Normalized: r0:DSETVAR1
#
DISCID=8d09120e
DTITLE=Various Artist - Country Tears
DYEAR=2003
DGENRE=Country
TTITLE0=Roger Miller - King Of The Road
TTITLE1=Charlie Rich - The Most Beautiful Girl
TTITLE2=Kris Kristofferson - Help Me Make It Through The Night
TTITLE3=Roy Orbison - Pretty Women
TTITLE4=George Jones - A Good Year For The Roses
TTITLE5=Johnny Cash - Orange Blossom Special
TTITLE6=Lynn Anderson - Rose Garden
TTITLE7=Charlie Rich - behind closed doors
TTITLE8=Charlie Rich - Room Full Of Roses
TTITLE9=Willie Nelson - My Heroes Have Always Been Cowboys
TTITLE10=Frankie Laine - Rawhide
TTITLE11=Johnny Cash - Folsom Prison Blues
TTITLE12=Frankie Laine - High Noon
TTITLE13=Gene Autry - Goodnight Irene
EXTD=
EXTT0=
EXTT1=
EXTT2=
EXTT3=
EXTT4=
EXTT5=
EXTT6=
EXTT7=
EXTT8=
EXTT9=
EXTT10=
EXTT11=
EXTT12=
EXTT13=
PLAYORDER=
